<svg width="67" height="50" viewBox="0 0 67 50" fill="none" xmlns="http://www.w3.org/2000/svg">
<circle cx="33" cy="25" r="25" fill="#68B738"/>
<g clip-path="url(#clip0_95_1)">
<path d="M60.5591 13.8784C61.1364 12.96 61.9036 12.1757 62.8091 11.5784C63.3091 11.2284 63.6091 11.2284 63.9091 11.8784C64.3091 12.8284 64.6591 13.8284 64.3591 14.8784C64.3045 15.0565 64.2942 15.2452 64.3291 15.4282C64.3639 15.6112 64.4429 15.7829 64.5591 15.9284C64.8591 16.3284 65.1091 16.7284 65.3591 17.0784C65.6994 17.5103 65.9201 18.0241 65.9991 18.5682C66.078 19.1123 66.0125 19.6676 65.8091 20.1784C65.6256 20.6743 65.5908 21.213 65.7091 21.7284C65.809 22.2234 65.809 22.7334 65.7091 23.2284C65.6687 23.5991 65.5187 23.9494 65.2782 24.2344C65.0377 24.5194 64.7177 24.7262 64.3591 24.8284C63.7196 24.9501 63.1488 25.3069 62.7591 25.8284C62.7119 25.9052 62.6457 25.9686 62.5669 26.0124C62.488 26.0562 62.3993 26.0789 62.3091 26.0784C61.7091 26.1784 60.2091 24.8284 60.2091 24.2284V23.9284C60.2591 22.1284 60.1591 21.9784 58.5091 21.2284C58.1638 21.1066 57.8544 20.9004 57.6091 20.6284C57.3091 20.2284 56.9091 20.2784 56.4591 20.4284C56.0091 20.5784 55.7591 20.8784 55.8091 21.3784C55.9599 22.5889 56.0101 23.8097 55.9591 25.0284C55.9624 25.1675 55.9966 25.3041 56.0591 25.4284C57.6091 27.6784 58.2091 30.3284 58.9591 32.8784C59.5591 34.8284 60.6591 35.8784 62.6591 36.0284C62.9792 36.054 63.2968 36.1041 63.6091 36.1784C64.02 36.2444 64.4017 36.4322 64.7048 36.7174C65.0078 37.0027 65.2183 37.3723 65.3091 37.7784C65.6591 38.8284 65.4591 39.0784 64.4091 39.0784H61.1591C60.7384 39.0997 60.3259 38.9562 60.0091 38.6784C59.5031 38.2514 58.9282 37.9132 58.3091 37.6784C57.6247 37.4258 57.0323 36.9728 56.6091 36.3784C56.0234 35.5602 55.3531 34.806 54.6091 34.1284C53.2091 32.6784 51.7091 31.2784 50.4091 29.7784C49.4195 28.7563 48.8486 27.4006 48.8091 25.9784C48.8091 25.5284 48.7091 25.3284 48.2091 25.5284C48.0594 25.6234 47.8864 25.6753 47.7091 25.6784C46.3091 25.6784 45.6091 26.5284 45.1091 27.7784C44.6591 28.8284 44.0591 29.8284 43.5091 30.8784C43.1972 31.5357 43.0269 32.2511 43.0091 32.9784C43.0091 34.1784 43.3091 34.5784 44.4091 34.9784C45.1091 35.2284 45.7591 35.4784 46.1091 36.1784C46.5091 36.9784 46.4091 37.1784 45.5591 37.2284H42.1591C41.9631 37.2478 41.7659 37.2052 41.5955 37.1065C41.425 37.0078 41.2899 36.8581 41.2091 36.6784L40.3091 35.1784C40.0438 34.7871 39.874 34.3389 39.8132 33.87C39.7524 33.4011 39.8024 32.9245 39.9591 32.4784C40.1755 31.6102 40.1926 30.7042 40.0091 29.8284C39.8831 29.2185 39.8939 28.5882 40.0409 27.9829C40.1879 27.3777 40.4674 26.8126 40.8591 26.3284C41.1591 25.9784 41.1591 25.8284 40.6591 25.7284C38.6146 25.2941 36.6325 24.6054 34.7591 23.6784C34.7459 23.6784 34.7331 23.6732 34.7238 23.6638C34.7144 23.6544 34.7091 23.6417 34.7091 23.6284C33.1091 23.0284 32.8091 23.1284 32.3591 24.7784C31.9591 26.1784 31.5591 27.5784 31.2591 29.0284C30.9091 30.6284 31.3091 32.1284 31.8091 33.6284C32.0091 34.2284 32.6091 34.1784 33.0591 34.3284C34.0591 34.6284 34.9091 35.0284 35.3091 36.0784C35.6591 36.8784 35.6091 36.9784 34.7591 36.9784C33.9091 36.9784 33.0591 36.9284 32.1591 36.9784C31.3997 36.9922 30.6584 36.7451 30.0591 36.2784C27.6591 34.6784 26.9591 32.2284 26.7591 29.5784C26.6591 27.9284 25.7591 26.6284 24.7091 25.3784C24.5091 25.1284 24.3091 25.0284 24.0091 25.2284C22.9359 25.8202 21.8153 26.3219 20.6591 26.7284C18.2462 27.5804 16.1289 29.1077 14.5591 31.1284C13.9729 31.8659 13.5933 32.746 13.4591 33.6784C13.3091 34.5784 13.5591 34.9784 14.4591 35.2284C15.3591 35.4784 15.8091 35.9784 15.9091 36.9284C15.9591 37.3284 15.8091 37.5284 15.4091 37.5284H11.3591C11.2266 37.519 11.0982 37.4778 10.9851 37.4081C10.8719 37.3385 10.7772 37.2425 10.7091 37.1284C10.081 36.3508 9.74494 35.3779 9.75912 34.3784C9.73288 32.6509 9.88366 30.9252 10.2091 29.2284C10.2759 28.7203 10.4656 28.2361 10.7618 27.8178C11.0581 27.3996 11.4519 27.06 11.9091 26.8284C14.8591 25.4284 16.4091 22.7784 17.8091 20.0284C18.1091 19.4784 17.8591 19.3784 17.3591 19.4284C15.9598 19.6227 14.634 20.1737 13.5091 21.0284C12.0362 22.1029 10.6487 23.2897 9.35912 24.5784C7.98394 25.9753 6.16046 26.8427 4.20911 27.0284C0.559114 27.2284 -1.14089 25.1784 -0.990885 21.8784C-0.957354 20.7532 -0.533061 19.6748 0.209115 18.8284C0.467126 18.4939 0.818981 18.2439 1.21975 18.1103C1.62052 17.9767 2.05201 17.9656 2.45912 18.0784C3.20912 18.2784 3.40911 18.6784 3.10911 19.4284C2.95911 19.7284 2.75911 19.9784 2.60911 20.2784C2.39341 20.5849 2.22488 20.922 2.10911 21.2784C1.55911 22.7784 2.30911 23.8284 3.85911 23.9784C5.50911 24.1284 6.85912 23.4284 8.10912 22.4284C9.61508 21.2226 10.9595 19.8277 12.1091 18.2784C12.9687 17.1471 14.0512 16.2041 15.2895 15.5075C16.5279 14.8109 17.8959 14.3756 19.3091 14.2284C20.4591 14.0784 21.4591 13.5784 22.5591 13.2784C24.6164 12.6512 26.7586 12.3476 28.9091 12.3784C29.9052 12.4199 30.8974 12.2317 31.8091 11.8284C34.2591 10.8284 36.8091 10.8284 39.3591 11.3284C41.3591 11.7284 43.3591 12.2284 45.3091 12.7284C46.4696 12.9447 47.6629 12.9106 48.8091 12.6284C51.0034 12.0722 53.248 11.7372 55.5091 11.6284C56.9904 11.5564 58.4667 11.8482 59.8091 12.4784C60.8091 12.9284 60.8091 12.9284 60.5591 13.8784Z" fill="black"/>
</g>
<defs>
<clipPath id="clip0_95_1">
<rect width="67" height="28" fill="white" transform="translate(0 11)"/>
</clipPath>
</defs>
</svg>
